<?xml version="1.0" standalone="no"?>
<!DOCTYPE svg PUBLIC "-//W3C//DTD SVG 20010904//EN"
 "http://www.w3.org/TR/2001/REC-SVG-20010904/DTD/svg10.dtd">
<svg version="1.0" xmlns="http://www.w3.org/2000/svg"
 width="600.000000pt" height="600.000000pt" viewBox="0 0 600.000000 600.000000"
 preserveAspectRatio="xMidYMid meet">
<metadata>
Created by potrace 1.14, written by Peter Selinger 2001-2017
</metadata>
<g transform="translate(0.000000,600.000000) scale(0.100000,-0.100000)"
fill="#000000" stroke="none">
<path d="M1130 5985 c-142 -24 -257 -60 -385 -121 -33 -15 -61 -32 -63 -36 -2
-4 -8 -8 -13 -8 -12 0 -119 -71 -178 -119 -249 -201 -421 -502 -476 -834 -11
-67 -14 -411 -14 -1867 0 -1974 -3 -1871 65 -2078 83 -254 214 -445 427 -624
168 -140 407 -246 637 -283 125 -19 3615 -19 3740 0 286 45 555 185 755 391
72 75 87 93 144 178 55 81 130 223 146 276 1 3 13 43 28 90 14 47 29 103 33
125 4 22 9 49 13 60 3 11 6 837 7 1835 2 2002 5 1904 -61 2106 -114 346 -348
620 -670 781 -75 38 -198 86 -248 98 -12 3 -53 13 -92 22 -64 15 -219 17
-1895 19 -1451 2 -1840 -1 -1900 -11z"/>
</g>
</svg>
